# xmcd
#
# Track frame offsets: 
#        187
#        14557
#        35819
#        52339
#        72424
#        84534
#        107967
#        126357
#        141842
#        152042
#        168664
#        182369
#        203117
#        216537
#        237482
#        252552
#        274017
#        288537
#        301664
#        321814
#
# Disc length: 4482 seconds
#
# Revision: 0
# Processed by: cddbd v1.5.1PL2 Copyright (c) Steve Scherf et al.
# Submitted via: ExactAudioCopy v0.95b4
#
DISCID=3f118014
DTITLE=John Denver - John Denver Best
DYEAR=1994
DGENRE=Country
TTITLE0=Take Me Home, Country Roads
TTITLE1=Rocky Mountain High
TTITLE2=Goodbye Again
TTITLE3=My Sweet Lady
TTITLE4=Forest Lawn
TTITLE5=Sunshine On My Shoulders
TTITLE6=Leaving, On My Shoulders
TTITLE7=Friends With You
TTITLE8=The Eagle And The Hawk
TTITLE9=Prisoners
TTITLE10=Annie´s Song
TTITLE11=Poems, Prayers And Promisses
TTITLE12=Please Daddy
TTITLE13=Mr. Bojangles
TTITLE14=City Of New Orleans
TTITLE15=Back Home Again
TTITLE16=Starwood In Aspen
TTITLE17=Follow Me
TTITLE18=I´d Rather Be A Cowboy (Lady´s Chain)
TTITLE19=Rhymes And Reasons
EXTD=
EXTT0=
EXTT1=
EXTT2=
EXTT3=
EXTT4=
EXTT5=
EXTT6=
EXTT7=
EXTT8=
EXTT9=
EXTT10=
EXTT11=
EXTT12=
EXTT13=
EXTT14=
EXTT15=
EXTT16=
EXTT17=
EXTT18=
EXTT19=
PLAYORDER=
